<svg id="Layer_2" data-name="Layer 2" xmlns="http://www.w3.org/2000/svg" viewBox="0 0 71.55 71.55"><defs><style>.cls-1{fill:#8250a0;}.cls-2{fill:#518ac8;}</style></defs><path class="cls-1" d="M70.44,63.69l-7.06,7.07L58.57,66l-1.38-1.37-.38-.4L55,62.42,48,69.49l-.44.16-1.29-4.84L44.93,60,39.54,39.84l20.4,5.47,4.87,1.3,4.76,1.28-7.46,7.46,2.22,2.23,1.31,1.3Z" transform="translate(-0.23)"/><path class="cls-1" d="M48,69.49l-.38.38-.06-.22Z" transform="translate(-0.23)"/><path class="cls-2" d="M71.77,35.77A35.46,35.46,0,0,1,71,43.1l-4.83-1.3-4.85-1.29a24.73,24.73,0,0,0,.44-4.74A25.77,25.77,0,1,0,36,61.55a25,25,0,0,0,4.08-.33l1.31,4.86,1.3,4.84a35.13,35.13,0,0,1-6.69.63A35.78,35.78,0,1,1,71.77,35.77Z" transform="translate(-0.23)"/></svg>